Coordinates
version=1
nRows=31
nColumns=33
inDegrees=yes

Units are S.I. units (second, meters, Newtons, ...)
Angles are in degrees.

endheader
time	ground_thorax_rot_x	ground_thorax_rot_y	ground_thorax_rot_z	ground_thorax_tx	ground_thorax_ty	ground_thorax_tz	clav_prot_r	clav_elev_r	scapula_abduction_r	scapula_elevation_r	scapula_upward_rot_r	scapula_winging_r	shoulder_elv_r	plane_of_elev_r	axial_rot_r	elbow_flexion_r	pro_sup_r	wrist_flex_r	wrist_dev_r	clav_prot_l	clav_elev_l	scapula_abduction_l	scapula_elevation_l	scapula_upward_rot_l	scapula_winging_l	shoulder_elv_l	plane_of_elev_l	axial_rot_l	elbow_flexion_l	pro_sup_l	wrist_flex_l	wrist_dev_l	
7.2700	39.952274	6.795495	6.796608	-247.950509	853.088330	6.556021	12.212317	39.077078	37.045360	45.000000	-32.759579	2789.703396	-3892.848685	32.723502	55.085167	381.420142	116.032732	11.423630	2.649090	9.820069	-45.000000	-38.834498	45.000000	-45.000000	-1341.376969	267.450063	137.422013	-180.000000	1451.452308	57.416828	2.966530	-23.740001	
7.2800	39.890351	6.857133	6.893169	-247.860886	852.746428	6.612571	12.222837	39.059593	37.011309	45.000000	-32.920656	2789.729407	-3892.863576	32.773932	55.108988	381.467319	116.150187	11.384093	2.773091	9.802917	-45.000000	-38.849072	45.000000	-45.000000	-1341.340988	267.431134	137.370419	-180.000000	1451.443858	57.517218	2.830980	-23.745518	
7.2900	39.829333	6.936314	7.004628	-247.748945	852.407495	6.667651	12.225861	39.058783	36.966188	45.000000	-33.113789	2789.751905	-3892.869283	32.844943	55.160825	381.529961	116.262716	11.336245	2.980914	9.763027	-45.000000	-38.887795	45.000000	-45.000000	-1341.259427	267.401341	137.283540	-180.000000	1451.419217	57.595009	2.640722	-23.772532	
7.3000	39.779466	6.987335	7.100658	-247.582642	852.073152	6.723742	12.234451	39.057842	36.951923	45.000000	-33.200246	2789.771847	-3892.883630	32.878366	55.156488	381.569779	116.408973	11.317283	3.059295	9.746947	-45.000000	-38.896468	45.000000	-45.000000	-1341.234041	267.390329	137.241155	-180.000000	1451.431038	57.648110	2.538056	-23.757266	
7.3100	39.741365	7.017500	7.191169	-247.363878	851.746286	6.778198	12.238421	39.033939	36.970783	45.000000	-33.229503	2789.787873	-3892.892400	32.885346	55.133135	381.607917	116.576687	11.311296	3.069141	9.746918	-45.000000	-38.878446	45.000000	-45.000000	-1341.248276	267.388677	137.233843	-180.000000	1451.467729	57.671318	2.473983	-23.728592	
7.3200	39.709490	7.038268	7.270633	-247.089341	851.429801	6.829255	12.241213	39.028722	36.995080	45.000000	-33.205062	2789.800344	-3892.903205	32.883969	55.094494	381.641805	116.767562	11.318241	3.047885	9.746417	-45.000000	-38.861343	45.000000	-45.000000	-1341.270221	267.394675	137.223659	-180.000000	1451.513132	57.662232	2.435714	-23.687745	
7.3300	39.684284	7.056013	7.347812	-246.763710	851.127007	6.874411	12.243732	39.011641	37.027618	45.000000	-33.145134	2789.806321	-3892.915690	32.874789	55.053065	381.668059	116.977550	11.330186	2.993558	9.753535	-45.000000	-38.833294	45.000000	-45.000000	-1341.315049	267.410049	137.230273	-180.000000	1451.572342	57.624017	2.415727	-23.643820	
7.3400	39.659446	7.082448	7.412701	-246.393315	850.840509	6.911240	12.242836	39.037495	37.028583	45.000000	-33.063638	2789.812752	-3892.926956	32.885412	55.012976	381.692528	117.201330	11.340886	2.968857	9.750257	-45.000000	-38.835629	45.000000	-45.000000	-1341.329887	267.427422	137.193091	-180.000000	1451.619160	57.561297	2.390286	-23.603676	
7.3500	39.642119	7.109130	7.472102	-245.982120	850.572217	6.937970	12.239076	39.047405	37.036983	45.000000	-32.967212	2789.813839	-3892.933486	32.892926	54.976540	381.714648	117.437308	11.351501	2.923940	9.756030	-45.000000	-38.834612	45.000000	-45.000000	-1341.366600	267.449980	137.169841	-180.000000	1451.672059	57.480454	2.374630	-23.566281	
7.3600	39.627285	7.139021	7.512671	-245.531317	850.322287	6.953155	12.230961	39.097601	37.018969	45.000000	-32.850065	2789.820163	-3892.935000	32.916410	54.935070	381.736897	117.684889	11.355818	2.902897	9.755347	-45.000000	-38.862285	45.000000	-45.000000	-1341.377162	267.474242	137.102376	-180.000000	1451.709408	57.385400	2.360698	-23.532599	
7.3700	39.618530	7.169023	7.549602	-245.040317	850.089639	6.955710	12.216618	39.130492	37.015459	45.000000	-32.725664	2789.823064	-3892.934683	32.934751	54.894769	381.759054	117.943222	11.357931	2.868111	9.763899	-45.000000	-38.886669	45.000000	-45.000000	-1341.405891	267.505333	137.048606	-180.000000	1451.749398	57.277384	2.353439	-23.502331	
7.3800	39.611806	7.198390	7.575263	-244.506127	849.871119	6.945153	12.197598	39.184450	37.005009	45.000000	-32.585991	2789.831510	-3892.927569	32.956208	54.846599	381.790062	118.212105	11.352910	2.845187	9.769590	-45.000000	-38.932423	45.000000	-45.000000	-1341.421970	267.537356	136.976817	-180.000000	1451.780378	57.158048	2.350242	-23.476791	
7.3900	39.612870	7.226141	7.601157	-243.924331	849.662241	6.921649	12.166017	39.203843	37.032031	45.000000	-32.445381	2789.833522	-3892.919054	32.953360	54.797741	381.830021	118.492859	11.349289	2.802349	9.784867	-45.000000	-38.966114	45.000000	-45.000000	-1341.469138	267.575112	136.936453	-180.000000	1451.820795	57.025039	2.351643	-23.455831	
7.4000	39.616107	7.255629	7.620628	-243.288775	849.457036	6.886096	12.129273	39.233845	37.064462	45.000000	-32.290746	2789.835269	-3892.913491	32.942278	54.737555	381.876299	118.788865	11.340127	2.765317	9.798929	-45.000000	-39.003670	45.000000	-45.000000	-1341.510910	267.620944	136.881611	-180.000000	1451.859551	56.877666	2.357488	-23.438426	
7.4100	39.624264	7.292556	7.643837	-242.592537	849.249174	6.839964	12.083626	39.250708	37.115959	45.000000	-32.130587	2789.829929	-3892.915179	32.918119	54.670232	381.921043	119.101746	11.334892	2.719822	9.817916	-45.000000	-39.030682	45.000000	-45.000000	-1341.566942	267.677120	136.834348	-180.000000	1451.907072	56.712200	2.365471	-23.421348	
7.4200	39.636725	7.332498	7.669057	-241.828128	849.032172	6.785170	12.043105	39.278217	37.175450	45.000000	-31.956541	2789.813734	-3892.923666	32.898660	54.590235	381.965812	119.431593	11.326963	2.677862	9.834353	-45.000000	-39.049203	45.000000	-45.000000	-1341.621684	267.739919	136.774886	-180.000000	1451.952900	56.527431	2.377553	-23.404654	
7.4300	39.657468	7.370072	7.693811	-240.988161	848.800049	6.723812	12.007404	39.303641	37.258047	45.000000	-31.772950	2789.780200	-3892.944086	32.885171	54.504264	382.006915	119.779505	11.323699	2.630224	9.844719	-45.000000	-39.047340	45.000000	-45.000000	-1341.690815	267.809911	136.712306	-180.000000	1451.999334	56.319159	2.393613	-23.387136	
7.4400	39.682399	7.404471	7.720728	-240.065864	848.547553	6.657939	11.990254	39.344324	37.351572	45.000000	-31.573966	2789.731280	-3892.980029	32.891340	54.411561	382.042732	120.143714	11.319066	2.584845	9.843804	-45.000000	-39.030959	45.000000	-45.000000	-1341.761774	267.885979	136.636490	-180.000000	1452.038905	56.084682	2.415571	-23.368379	
7.4500	39.712784	7.436220	7.748855	-239.055040	848.270160	6.589344	11.985830	39.393311	37.455598	45.000000	-31.361205	2789.674984	-3893.023930	32.912629	54.318451	382.073852	120.520873	11.318730	2.534425	9.830976	-45.000000	-39.009311	45.000000	-45.000000	-1341.845166	267.962670	136.560088	-180.000000	1452.078336	55.818970	2.443010	-23.349235	
7.4600	39.744075	7.478288	7.789272	-237.950506	847.963987	6.519479	11.987009	39.448177	37.560442	45.000000	-31.130536	2789.617060	-3893.073717	32.938685	54.216113	382.102206	120.901718	11.319471	2.480512	9.816158	-45.000000	-38.995392	45.000000	-45.000000	-1341.935015	268.037017	136.487526	-180.000000	1452.114189	55.521249	2.477132	-23.329244	
7.4700	39.778926	7.527726	7.833094	-236.747699	847.625388	6.449437	11.985873	39.506026	37.665855	45.000000	-30.884822	2789.566623	-3893.122175	32.961814	54.105512	382.128535	121.274537	11.324847	2.420110	9.800924	-45.000000	-38.990824	45.000000	-45.000000	-1342.032893	268.107276	136.412145	-180.000000	1452.152403	55.188785	2.518017	-23.310221	
7.4800	39.815580	7.589597	7.884095	-235.443027	847.250604	6.380068	11.976559	39.565304	37.772045	45.000000	-30.623398	2789.523888	-3893.167594	32.976734	53.983823	382.153301	121.625456	11.336390	2.352438	9.792435	-45.000000	-38.994655	45.000000	-45.000000	-1342.136134	268.177298	136.331330	-180.000000	1452.190043	54.820437	2.566293	-23.290599	
7.4900	39.857947	7.658895	7.939719	-234.033232	846.835140	6.312133	11.980790	39.635268	37.885542	45.000000	-30.357574	2789.482510	-3893.211750	32.992810	53.864279	382.171691	121.941557	11.359177	2.275734	9.773967	-45.000000	-39.003336	45.000000	-45.000000	-1342.251889	268.242513	136.250293	-180.000000	1452.233697	54.410428	2.621358	-23.271105	
7.5000	39.904416	7.739601	8.005186	-232.515921	846.373551	6.246505	11.985851	39.709871	38.006075	45.000000	-30.081080	2789.439797	-3893.258622	33.005149	53.739151	382.184702	122.212734	11.393679	2.191786	9.754375	-45.000000	-39.011342	45.000000	-45.000000	-1342.376994	268.307029	136.165302	-180.000000	1452.276468	53.956599	2.685739	-23.251170	
7.5100	39.957773	7.822713	8.077009	-230.888820	845.859057	6.184285	12.019017	39.798365	38.145595	45.000000	-29.808027	2789.385904	-3893.315779	33.026133	53.623906	382.190023	122.430817	11.444403	2.099672	9.713700	-45.000000	-39.011799	45.000000	-45.000000	-1342.519027	268.368644	136.082217	-180.000000	1452.323426	53.450716	2.759779	-23.231808	
7.5200	40.014292	7.916142	8.161989	-229.150212	845.283747	6.126857	12.056890	39.890928	38.289602	45.000000	-29.528444	2789.331132	-3893.378966	33.047186	53.506900	382.190644	122.590234	11.510737	2.001629	9.667486	-45.000000	-39.008149	45.000000	-45.000000	-1342.671747	268.429379	135.997066	-180.000000	1452.368754	52.890654	2.846738	-23.213080	
7.5300	40.075071	8.018029	8.260363	-227.298104	844.638617	6.075783	12.114883	39.992046	38.440999	45.000000	-29.252562	2789.273748	-3893.449118	33.072418	53.396882	382.185532	122.683959	11.595081	1.897920	9.605838	-45.000000	-38.999140	45.000000	-45.000000	-1342.839746	268.485270	135.915033	-180.000000	1452.416964	52.269126	2.947345	-23.195780	
7.5400	40.134404	8.137844	8.378030	-225.330547	843.914115	6.032629	12.159055	40.086589	38.580752	45.000000	-28.967828	2789.230027	-3893.520170	33.088302	53.273373	382.178468	122.701833	11.695354	1.791950	9.552316	-45.000000	-38.989417	45.000000	-45.000000	-1343.013514	268.538086	135.827340	-180.000000	1452.458956	51.586876	3.065742	-23.179549	
7.5500	40.193435	8.269504	8.510852	-223.245177	843.100495	5.998718	12.204719	40.179735	38.717292	45.000000	-28.683759	2789.195383	-3893.595117	33.101662	53.143624	382.165328	122.625660	11.814804	1.684765	9.496563	-45.000000	-38.975198	45.000000	-45.000000	-1343.198171	268.584624	135.736602	-180.000000	1452.494996	50.839509	3.203032	-23.163777	
7.5600	40.249448	8.416487	8.662006	-221.039809	842.188471	5.974945	12.246642	40.270166	38.849077	45.000000	-28.396107	2789.170807	-3893.674194	33.107147	53.003948	382.145167	122.424779	11.953754	1.579649	9.439766	-45.000000	-38.955060	45.000000	-45.000000	-1343.393112	268.625732	135.642260	-180.000000	1452.520802	50.022827	3.361324	-23.146717	
7.5700	40.304048	8.573241	8.828752	-218.712381	841.169641	5.961665	12.298408	40.364469	38.985082	44.999999	-28.112034	2789.150175	-3893.761079	33.109909	52.864771	382.111707	122.051253	12.115430	1.480214	9.371372	-45.000000	-38.928339	45.000000	-45.000000	-1343.603401	268.657551	135.548112	-180.000000	1452.536498	49.130021	3.541853	-23.127192	
